<mxfile host="Electron" agent="Mozilla/5.0 (Windows NT 10.0; Win64; x64) AppleWebKit/537.36 (KHTML, like Gecko) draw.io/24.7.8 Chrome/128.0.6613.36 Electron/32.0.1 Safari/537.36" version="24.7.8">
  <diagram name="Page-1" id="kgZr6MkRYpDuwTcATJqB">
    <mxGraphModel dx="627" dy="565" grid="1" gridSize="10" guides="1" tooltips="1" connect="1" arrows="1" fold="1" page="1" pageScale="1" pageWidth="850" pageHeight="1100" math="0" shadow="0">
      <root>
        <mxCell id="0" />
        <mxCell id="1" parent="0" />
        <mxCell id="IcVXdwAIOqt7uWlMImi9-1" value="" style="whiteSpace=wrap;html=1;aspect=fixed;" vertex="1" parent="1">
          <mxGeometry x="240" y="270" width="40" height="40" as="geometry" />
        </mxCell>
        <mxCell id="IcVXdwAIOqt7uWlMImi9-2" value="" style="whiteSpace=wrap;html=1;aspect=fixed;" vertex="1" parent="1">
          <mxGeometry x="280" y="270" width="40" height="40" as="geometry" />
        </mxCell>
        <mxCell id="IcVXdwAIOqt7uWlMImi9-3" value="" style="whiteSpace=wrap;html=1;aspect=fixed;" vertex="1" parent="1">
          <mxGeometry x="320" y="270" width="40" height="40" as="geometry" />
        </mxCell>
        <mxCell id="IcVXdwAIOqt7uWlMImi9-4" value="" style="whiteSpace=wrap;html=1;aspect=fixed;" vertex="1" parent="1">
          <mxGeometry x="360" y="270" width="40" height="40" as="geometry" />
        </mxCell>
        <mxCell id="IcVXdwAIOqt7uWlMImi9-5" value="" style="whiteSpace=wrap;html=1;aspect=fixed;" vertex="1" parent="1">
          <mxGeometry x="240" y="310" width="40" height="40" as="geometry" />
        </mxCell>
        <mxCell id="IcVXdwAIOqt7uWlMImi9-6" value="" style="whiteSpace=wrap;html=1;aspect=fixed;" vertex="1" parent="1">
          <mxGeometry x="280" y="310" width="40" height="40" as="geometry" />
        </mxCell>
        <mxCell id="IcVXdwAIOqt7uWlMImi9-7" value="" style="whiteSpace=wrap;html=1;aspect=fixed;" vertex="1" parent="1">
          <mxGeometry x="320" y="310" width="40" height="40" as="geometry" />
        </mxCell>
        <mxCell id="IcVXdwAIOqt7uWlMImi9-8" value="" style="whiteSpace=wrap;html=1;aspect=fixed;" vertex="1" parent="1">
          <mxGeometry x="360" y="310" width="40" height="40" as="geometry" />
        </mxCell>
        <mxCell id="IcVXdwAIOqt7uWlMImi9-9" value="" style="whiteSpace=wrap;html=1;aspect=fixed;" vertex="1" parent="1">
          <mxGeometry x="240" y="350" width="40" height="40" as="geometry" />
        </mxCell>
        <mxCell id="IcVXdwAIOqt7uWlMImi9-10" value="" style="whiteSpace=wrap;html=1;aspect=fixed;" vertex="1" parent="1">
          <mxGeometry x="280" y="350" width="40" height="40" as="geometry" />
        </mxCell>
        <mxCell id="IcVXdwAIOqt7uWlMImi9-11" value="" style="whiteSpace=wrap;html=1;aspect=fixed;" vertex="1" parent="1">
          <mxGeometry x="320" y="350" width="40" height="40" as="geometry" />
        </mxCell>
        <mxCell id="IcVXdwAIOqt7uWlMImi9-12" value="" style="whiteSpace=wrap;html=1;aspect=fixed;" vertex="1" parent="1">
          <mxGeometry x="360" y="350" width="40" height="40" as="geometry" />
        </mxCell>
        <mxCell id="IcVXdwAIOqt7uWlMImi9-13" value="" style="whiteSpace=wrap;html=1;aspect=fixed;" vertex="1" parent="1">
          <mxGeometry x="240" y="390" width="40" height="40" as="geometry" />
        </mxCell>
        <mxCell id="IcVXdwAIOqt7uWlMImi9-14" value="" style="whiteSpace=wrap;html=1;aspect=fixed;" vertex="1" parent="1">
          <mxGeometry x="280" y="390" width="40" height="40" as="geometry" />
        </mxCell>
        <mxCell id="IcVXdwAIOqt7uWlMImi9-15" value="" style="whiteSpace=wrap;html=1;aspect=fixed;" vertex="1" parent="1">
          <mxGeometry x="320" y="390" width="40" height="40" as="geometry" />
        </mxCell>
        <mxCell id="IcVXdwAIOqt7uWlMImi9-16" value="" style="whiteSpace=wrap;html=1;aspect=fixed;" vertex="1" parent="1">
          <mxGeometry x="360" y="390" width="40" height="40" as="geometry" />
        </mxCell>
        <mxCell id="IcVXdwAIOqt7uWlMImi9-21" value="" style="endArrow=classic;html=1;rounded=0;" edge="1" parent="1" source="IcVXdwAIOqt7uWlMImi9-27">
          <mxGeometry width="50" height="50" relative="1" as="geometry">
            <mxPoint x="250" y="289.71" as="sourcePoint" />
            <mxPoint x="350" y="289.71" as="targetPoint" />
          </mxGeometry>
        </mxCell>
        <mxCell id="IcVXdwAIOqt7uWlMImi9-23" value="" style="endArrow=classic;html=1;rounded=0;" edge="1" parent="1" source="IcVXdwAIOqt7uWlMImi9-30">
          <mxGeometry width="50" height="50" relative="1" as="geometry">
            <mxPoint x="290" y="329.71" as="sourcePoint" />
            <mxPoint x="390" y="329.71" as="targetPoint" />
          </mxGeometry>
        </mxCell>
        <mxCell id="IcVXdwAIOqt7uWlMImi9-25" value="" style="endArrow=classic;html=1;rounded=0;" edge="1" parent="1">
          <mxGeometry width="50" height="50" relative="1" as="geometry">
            <mxPoint x="190" y="280" as="sourcePoint" />
            <mxPoint x="190" y="340" as="targetPoint" />
          </mxGeometry>
        </mxCell>
        <mxCell id="IcVXdwAIOqt7uWlMImi9-26" value="i:=1..2(4-3+1)" style="edgeLabel;html=1;align=center;verticalAlign=middle;resizable=0;points=[];" vertex="1" connectable="0" parent="IcVXdwAIOqt7uWlMImi9-25">
          <mxGeometry x="-0.1095" y="1" relative="1" as="geometry">
            <mxPoint as="offset" />
          </mxGeometry>
        </mxCell>
        <mxCell id="IcVXdwAIOqt7uWlMImi9-31" value="" style="endArrow=classic;html=1;rounded=0;" edge="1" parent="1" target="IcVXdwAIOqt7uWlMImi9-30">
          <mxGeometry width="50" height="50" relative="1" as="geometry">
            <mxPoint x="290" y="329.71" as="sourcePoint" />
            <mxPoint x="390" y="329.71" as="targetPoint" />
          </mxGeometry>
        </mxCell>
        <mxCell id="IcVXdwAIOqt7uWlMImi9-35" value="l=3" style="edgeLabel;html=1;align=center;verticalAlign=middle;resizable=0;points=[];" vertex="1" connectable="0" parent="IcVXdwAIOqt7uWlMImi9-31">
          <mxGeometry x="-0.168" y="2" relative="1" as="geometry">
            <mxPoint as="offset" />
          </mxGeometry>
        </mxCell>
        <mxCell id="IcVXdwAIOqt7uWlMImi9-30" value="j=4" style="ellipse;whiteSpace=wrap;html=1;aspect=fixed;" vertex="1" parent="1">
          <mxGeometry x="370" y="320" width="20" height="20" as="geometry" />
        </mxCell>
        <mxCell id="IcVXdwAIOqt7uWlMImi9-33" value="" style="endArrow=classic;html=1;rounded=0;" edge="1" parent="1" target="IcVXdwAIOqt7uWlMImi9-27">
          <mxGeometry width="50" height="50" relative="1" as="geometry">
            <mxPoint x="250" y="289.71" as="sourcePoint" />
            <mxPoint x="350" y="289.71" as="targetPoint" />
          </mxGeometry>
        </mxCell>
        <mxCell id="IcVXdwAIOqt7uWlMImi9-36" value="l=3" style="edgeLabel;html=1;align=center;verticalAlign=middle;resizable=0;points=[];" vertex="1" connectable="0" parent="IcVXdwAIOqt7uWlMImi9-33">
          <mxGeometry x="0.1894" y="-1" relative="1" as="geometry">
            <mxPoint as="offset" />
          </mxGeometry>
        </mxCell>
        <mxCell id="IcVXdwAIOqt7uWlMImi9-27" value="j=3" style="ellipse;whiteSpace=wrap;html=1;aspect=fixed;" vertex="1" parent="1">
          <mxGeometry x="330" y="280" width="20" height="20" as="geometry" />
        </mxCell>
        <mxCell id="IcVXdwAIOqt7uWlMImi9-37" value="" style="verticalLabelPosition=bottom;shadow=0;dashed=0;align=center;html=1;verticalAlign=top;strokeWidth=1;shape=mxgraph.mockup.markup.curlyBrace;whiteSpace=wrap;strokeColor=#999999;" vertex="1" parent="1">
          <mxGeometry x="250" y="240" width="80" height="70" as="geometry" />
        </mxCell>
        <mxCell id="IcVXdwAIOqt7uWlMImi9-38" value="" style="endArrow=classic;html=1;rounded=0;" edge="1" parent="1">
          <mxGeometry width="50" height="50" relative="1" as="geometry">
            <mxPoint x="249" y="250" as="sourcePoint" />
            <mxPoint x="331" y="250" as="targetPoint" />
          </mxGeometry>
        </mxCell>
        <mxCell id="IcVXdwAIOqt7uWlMImi9-39" value="k:= i..j" style="edgeLabel;html=1;align=center;verticalAlign=middle;resizable=0;points=[];" vertex="1" connectable="0" parent="IcVXdwAIOqt7uWlMImi9-38">
          <mxGeometry x="0.1568" y="1" relative="1" as="geometry">
            <mxPoint as="offset" />
          </mxGeometry>
        </mxCell>
      </root>
    </mxGraphModel>
  </diagram>
</mxfile>
